HIERARCHY
ROOT Hips
{
    OFFSET 0.000000 0.000000 0.000000
    CHANNELS 6 Xposition Yposition Zposition Zrotation Xrotation Yrotation
    JOINT Spine
    {
        OFFSET -0.000000 14.517291 0.000000
        CHANNELS 3 Zrotation Xrotation Yrotation
        JOINT Spine1
        {
            OFFSET -0.000000 37.558300 0.000000
            CHANNELS 3 Zrotation Xrotation Yrotation
            JOINT Neck
            {
                OFFSET -0.000000 37.404057 3.400369
                CHANNELS 3 Zrotation Xrotation Yrotation
                JOINT Head
                {
                    OFFSET -0.000000 24.785618 -3.540803
                    CHANNELS 3 Zrotation Xrotation Yrotation
                    End Site
                    {
                        OFFSET -0.000000 35.408028 0.000000
                    }
                }
            }
            JOINT LeftShoulder
            {
                OFFSET 6.992933 33.973492 -0.192664
                CHANNELS 3 Zrotation Xrotation Yrotation
                JOINT LeftArm
                {
                    OFFSET 21.527611 0.000000 0.000000
                    CHANNELS 3 Zrotation Xrotation Yrotation
                    JOINT LeftForeArm
                    {
                        OFFSET 56.353916 0.000000 0.000000
                        CHANNELS 3 Zrotation Xrotation Yrotation
                        JOINT LeftHand
                        {
                            OFFSET 47.774071 0.000000 0.000000
                            CHANNELS 3 Zrotation Xrotation Yrotation
                            End Site
                            {
                                OFFSET 26.556021 0.000000 0.000000
                            }
                        }
                    }
                }
            }
            JOINT RightShoulder
            {
                OFFSET -7.065357 33.973492 -0.192664
                CHANNELS 3 Zrotation Xrotation Yrotation
                JOINT RightArm
                {
                    OFFSET -21.527611 0.000000 0.000000
                    CHANNELS 3 Zrotation Xrotation Yrotation
                    JOINT RightForeArm
                    {
                        OFFSET -56.353916 0.000000 0.000000
                        CHANNELS 3 Zrotation Xrotation Yrotation
                        JOINT RightHand
                        {
                            OFFSET -47.774071 0.000000 0.000000
                            CHANNELS 3 Zrotation Xrotation Yrotation
                            End Site
                            {
                                OFFSET -26.556021 0.000000 0.000000
                            }
                        }
                    }
                }
            }
        }
    }
    JOINT LeftUpLeg
    {
        OFFSET 17.704014 0.000000 0.000000
        CHANNELS 3 Zrotation Xrotation Yrotation
        JOINT LeftLeg
        {
            OFFSET -0.000000 -81.181816 0.000000
            CHANNELS 3 Zrotation Xrotation Yrotation
            JOINT LeftFoot
            {
                OFFSET -0.000000 -62.821102 0.000000
                CHANNELS 3 Zrotation Xrotation Yrotation
                JOINT LeftToeBase
                {
                    OFFSET -0.000000 -11.507608 26.556021
                    CHANNELS 3 Zrotation Xrotation Yrotation
                    End Site
                    {
                        OFFSET -0.000000 0.000000 7.081605
                    }
                }
            }
        }
    }
    JOINT RightUpLeg
    {
        OFFSET -17.704014 0.000000 0.000000
        CHANNELS 3 Zrotation Xrotation Yrotation
        JOINT RightLeg
        {
            OFFSET -0.000000 -81.181816 0.000000
            CHANNELS 3 Zrotation Xrotation Yrotation
            JOINT RightFoot
            {
                OFFSET -0.000000 -62.821102 0.000000
                CHANNELS 3 Zrotation Xrotation Yrotation
                JOINT RightToeBase
                {
                    OFFSET -0.000000 -11.507608 26.556021
                    CHANNELS 3 Zrotation Xrotation Yrotation
                    End Site
                    {
                        OFFSET -0.000000 0.000000 7.081605
                    }
                }
            }
        }
    }
}
MOTION
Frames:    8
Frame Time:    0.008333
-1.110441    151.710159    -6.158411    0.228157    4.086758    1.967256    0.762045    1.761793    9.594247    -1.204287    -0.372527    3.198771    -1.416069    1.370100    -8.126921    8.546156    -4.303163    -6.738111    0.117268    4.557457    -8.033709    -39.940842    17.896982    -47.829006    4.407173    -34.677391    -122.849670    -1.799256    -27.700674    -3.746925    -3.306733    10.785386    4.019490    35.881390    8.352433    55.916306    -27.873667    -28.929819    57.303368    11.707436    -10.950624    33.988323    -0.405265    -32.574467    -19.575844    -20.889875    42.720806    -14.961155    11.194323    -13.530957    39.210529    0.000000    0.000000    0.000000    -7.080488    11.207705    -12.083648    0.308978    32.975407    -3.601772    19.906855    -15.272971    -0.554922    0.000000    0.000000    0.000000    
-1.382533    151.643250    -6.604519    0.241772    4.064270    2.067951    0.761188    1.803552    9.598080    -1.246811    -0.376322    3.199968    -1.376913    1.432589    -8.172107    8.547911    -4.381187    -6.785375    0.157089    4.558074    -8.055180    -39.930706    17.961475    -47.918816    4.478617    -34.778770    -122.798477    -1.735224    -27.703777    -3.665589    -3.286999    10.799761    4.048309    35.950184    8.278255    55.865650    -27.792368    -28.891726    57.343678    11.638573    -10.966315    33.958618    -0.371081    -32.729385    -19.694427    -20.860575    42.671410    -14.887198    10.939172    -13.510744    39.109608    0.000000    0.000000    0.000000    -6.916373    11.305499    -12.405139    0.385884    32.761604    -3.873695    19.754660    -15.789358    -0.385009    0.000000    0.000000    0.000000    
-1.670501    151.572800    -7.042770    0.239987    4.038836    2.209749    0.776210    1.811006    9.575708    -1.283648    -0.341578    3.192871    -1.413961    1.474747    -8.237840    8.662093    -4.401259    -6.827435    0.185025    4.570181    -8.082417    -39.886917    17.990711    -47.989128    4.531589    -34.837612    -122.760651    -1.688713    -27.688351    -3.618124    -3.273441    10.847204    4.066815    35.914711    8.304439    55.846214    -27.885376    -28.981886    57.259647    11.723524    -11.015421    33.953266    -0.325709    -32.899586    -19.809345    -20.831532    42.657394    -14.886376    10.657672    -13.500276    39.042648    0.000000    0.000000    0.000000    -6.720343    11.455887    -12.915654    0.371834    32.443520    -3.985936    19.800846    -16.297832    -0.260278    0.000000    0.000000    0.000000    
-1.966593    151.497696    -7.500949    0.243959    4.003565    2.308773    0.766138    1.868887    9.572782    -1.297193    -0.368452    3.191628    -1.432148    1.549399    -8.274942    8.721992    -4.432835    -6.851511    0.188941    4.589242    -8.092848    -39.871674    17.980629    -48.048378    4.526579    -34.811531    -122.746437    -1.770175    -27.668453    -3.606042    -3.269034    10.860205    4.106162    35.952122    8.263238    55.786896    -27.804348    -28.940344    57.276520    11.677354    -11.021592    33.977970    -0.238906    -33.063232    -19.883520    -20.851675    42.623745    -14.807331    10.395739    -13.476996    38.928650    0.000000    0.000000    0.000000    -6.541076    11.616397    -13.379749    0.366055    32.099861    -4.120530    19.760250    -16.837969    -0.021631    0.000000    0.000000    0.000000    
-2.266161    151.421341    -7.925060    0.243174    3.952616    2.426266    0.752546    1.879691    9.587241    -1.293257    -0.328353    3.196880    -1.449794    1.528840    -8.332785    8.776746    -4.352733    -6.905347    0.190387    4.594102    -8.094585    -39.798954    18.051353    -48.183834    4.532687    -34.863960    -122.706833    -1.697904    -27.724783    -3.474350    -3.279176    10.904508    4.069421    35.942959    8.306350    55.777470    -27.868259    -28.974527    57.205299    11.713502    -11.034004    33.985336    -0.157301    -33.222897    -19.916101    -20.600004    42.762363    -15.430331    10.002962    -13.598356    39.002953    0.000000    0.000000    0.000000    -6.368360    11.830422    -13.907159    0.377953    31.700232    -4.108212    19.619816    -17.346642    0.183120    0.000000    0.000000    0.000000    
-2.575028    151.348907    -8.365694    0.245446    3.915331    2.552854    0.719555    1.910438    9.577158    -1.267042    -0.348296    3.193267    -1.543606    1.589142    -8.395925    8.922194    -4.345661    -6.933804    0.148809    4.571060    -8.099922    -39.712841    18.142130    -48.244164    4.498791    -34.883415    -122.720604    -1.583747    -27.804283    -3.308274    -3.273013    10.931364    4.104903    35.961285    8.298313    55.674946    -27.829729    -28.990944    57.247410    11.838558    -11.020731    34.007645    -0.070936    -33.382359    -19.909645    -20.565315    42.748478    -15.454273    9.746694    -13.562468    38.894188    0.000000    0.000000    0.000000    -6.180590    12.005578    -14.449347    0.353032    31.331938    -3.963889    19.455589    -17.909235    0.269728    0.000000    0.000000    0.000000    
-2.882833    151.276184    -8.806027    0.262256    3.862536    2.672110    0.690594    1.934128    9.592545    -1.280296    -0.330093    3.198437    -1.535296    1.613057    -8.439048    8.958862    -4.304063    -6.976840    0.168009    4.569230    -8.129245    -39.670422    18.171499    -48.315094    4.456767    -34.842953    -122.731567    -1.560502    -27.828876    -3.244868    -3.266851    10.952435    4.100711    35.993603    8.303486    55.602135    -27.809072    -28.987518    57.256882    11.849237    -11.033726    33.907314    0.014789    -33.509525    -19.909460    -20.533297    42.701294    -15.563068    9.494059    -13.526323    38.868919    0.000000    0.000000    0.000000    -6.025829    12.201070    -14.846434    0.443271    30.949465    -3.945405    19.234819    -18.458014    0.347118    0.000000    0.000000    0.000000    
-3.205631    151.198837    -9.237770    0.255953    3.804085    2.819277    0.679434    1.968993    9.580561    -1.315516    -0.308562    3.194616    -1.511488    1.548534    -8.479252    9.010549    -4.179357    -7.021471    0.212342    4.541490    -8.108948    -39.644615    18.250910    -48.431759    4.352297    -34.797916    -122.796455    -1.582909    -27.941580    -3.153961    -3.227783    10.968110    4.067165    35.994701    8.367436    55.545673    -27.815918    -29.050190    57.258881    11.884841    -11.087555    33.916904    0.097333    -33.677860    -19.891766    -20.361670    42.763466    -15.882678    9.118069    -13.527349    38.791851    0.000000    0.000000    0.000000    -5.816855    12.385454    -15.263416    0.459386    30.602224    -3.594233    18.923546    -19.069906    0.153659    0.000000    0.000000    0.000000    
